<svg preserveAspectRatio="none" overflow="visible" style="display: block;" width="19.1605" height="19.1605" viewBox="0 0 19.1605 19.1605" fill="none" xmlns="http://www.w3.org/2000/svg">
<g id="ant-design:twitter-circle-filled" clip-path="url(#clip0_0_85)">
<path id="Vector" d="M9.58023 0C4.28972 0 0 4.28972 0 9.58023C0 14.8707 4.28972 19.1605 9.58023 19.1605C14.8707 19.1605 19.1605 14.8707 19.1605 9.58023C19.1605 4.28972 14.8707 0 9.58023 0ZM14.1843 7.22152C14.1907 7.32203 14.1907 7.42681 14.1907 7.52946C14.1907 10.6687 11.7999 14.2848 7.43109 14.2848C6.08387 14.2848 4.83502 13.8935 3.78291 13.2199C3.97537 13.2412 4.15927 13.2498 4.35601 13.2498C5.468 13.2498 6.49018 12.8734 7.30492 12.2362C6.26136 12.2148 5.3846 11.5305 5.08522 10.5896C5.45089 10.643 5.78021 10.643 6.15658 10.5468C5.61924 10.4376 5.13627 10.1458 4.78972 9.7209C4.44317 9.29599 4.2544 8.76421 4.2555 8.2159V8.18596C4.56985 8.36345 4.9398 8.47251 5.32686 8.48748C5.00148 8.27063 4.73464 7.97684 4.54999 7.63217C4.36534 7.28749 4.2686 6.90258 4.26833 6.51156C4.26833 6.0689 4.38381 5.66474 4.59124 5.31403C5.18766 6.04824 5.93189 6.64872 6.77558 7.07646C7.61927 7.5042 8.54353 7.74962 9.48827 7.79677C9.15254 6.18224 10.3586 4.87565 11.8085 4.87565C12.4928 4.87565 13.1087 5.1622 13.5428 5.62411C14.0795 5.5236 14.5927 5.32259 15.0504 5.05314C14.8729 5.60272 14.5008 6.06676 14.0068 6.35973C14.4858 6.30841 14.9477 6.17582 15.3754 5.98978C15.0525 6.46451 14.6483 6.88579 14.1843 7.22152V7.22152Z" fill="#DB9F6A"/>
</g>
<defs>
<clipPath id="clip0_0_85">
<rect width="19.1605" height="19.1605" fill="white"/>
</clipPath>
</defs>
</svg>
