<svg preserveAspectRatio="none" overflow="visible" style="display: block;" width="19.1605" height="13.0639" viewBox="0 0 19.1605 13.0639" fill="none" xmlns="http://www.w3.org/2000/svg">
<g id="Group">
<path id="Vector" d="M18.7592 2.04973C18.6508 1.65417 18.4395 1.29604 18.1478 1.01343C17.8479 0.722121 17.4803 0.513743 17.0797 0.407961C15.5806 0.00404631 9.57464 0.00404641 9.57464 0.00404641C7.07081 -0.0250741 4.56759 0.103005 2.07912 0.387562C1.67856 0.501158 1.31166 0.714192 1.01107 1.00771C0.71572 1.29821 0.50179 1.65643 0.390036 2.04892C0.121581 3.52728 -0.00885317 5.02838 0.000492663 6.53197C-0.00908627 8.03421 0.121028 9.53481 0.390036 11.015C0.499396 11.4059 0.712527 11.7625 1.00868 12.0505C1.30482 12.3386 1.67361 12.5466 2.07912 12.6568C3.59818 13.0599 9.57464 13.0599 9.57464 13.0599C12.0817 13.089 14.5881 12.961 17.0797 12.6764C17.4803 12.5706 17.8479 12.3622 18.1478 12.0709C18.4431 11.7829 18.6531 11.4246 18.7584 11.0346C19.0339 9.55681 19.1679 8.05509 19.1584 6.55074C19.1791 5.04001 19.0453 3.53122 18.7592 2.04892V2.04973ZM7.66524 9.32592V3.73883L12.6623 6.53278L7.66524 9.32592Z" fill="#DB9F6A"/>
</g>
</svg>
